# 3ds Max Wavefront OBJ Exporter v0.97b - (c)2007 guruware
# File Created: 14.03.2018 11:17:01

mtllib BAQUETTEot.mtl

#
# object default
#

v  2.2660 0.6622 -4.5362
v  -2.2660 0.6622 -4.5362
v  -1.3596 1.5686 -3.6298
v  1.3596 1.5686 -3.6298
v  1.3596 1.5686 3.6213
v  -1.3596 1.5686 3.6213
v  -2.2660 0.6622 4.5277
v  2.2660 0.6622 4.5277
v  0.7604 -0.8786 -3.0340
v  0.0000 -1.3318 -2.2754
v  -0.7604 -0.8786 -3.0340
v  0.7601 -0.8786 3.0225
v  0.0000 -1.3318 2.2628
v  -0.7604 -0.8786 3.0225
v  -1.4858 -0.4255 3.7472
v  -1.4858 -0.4254 -3.7575
v  1.4851 -0.4254 -3.7575
v  1.4848 -0.4255 3.7472
v  -2.2660 0.4809 4.5277
v  -2.2660 0.4809 -4.5362
v  2.2660 0.4809 -4.5362
v  2.2660 0.4809 4.5277
# 22 vertices

vn 0.0000 0.7071 -0.7071
vn 0.0000 1.0000 -0.0000
vn 0.0000 0.7071 0.7071
vn 0.0000 -0.8585 -0.5128
vn 0.5120 -0.8590 -0.0000
vn -0.5120 -0.8590 -0.0000
vn -0.5298 -0.8481 -0.0000
vn 0.5302 -0.8479 -0.0000
vn 0.0000 -0.8588 0.5123
vn 0.0000 -0.8475 -0.5309
vn 0.0000 -0.8478 0.5302
vn -0.7579 -0.6524 -0.0000
vn 0.0000 -0.6517 -0.7585
vn 0.0000 -0.6525 0.7578
vn 0.7575 -0.6528 -0.0000
vn 0.0000 0.0000 -1.0000
vn 0.0000 0.0000 1.0000
vn -1.0000 0.0000 -0.0000
vn 1.0000 0.0000 -0.0000
vn -0.7071 0.7071 -0.0000
vn 0.7071 0.7071 -0.0000
# 21 vertex normals

vt 0.4003 0.7811 0.0000
vt 0.4003 0.4816 0.0000
vt 0.5026 0.4816 0.0000
vt 0.5026 0.7811 0.0000
vt 0.3988 0.4816 0.0000
vt 0.3988 0.7811 0.0000
vt 0.2965 0.7811 0.0000
vt 0.2965 0.4816 0.0000
vt 0.1939 0.1963 0.0000
vt 0.0000 0.0000 0.0000
vt 0.1939 0.0000 0.0000
vt 0.2822 0.0000 0.0000
vt 0.2822 0.1963 0.0000
vt 0.2082 0.1963 0.0000
vt 0.1199 0.0000 0.0000
vt 0.1199 0.1963 0.0000
vt 0.2082 0.0000 0.0000
vt 0.8035 0.5745 0.0000
vt 0.5040 0.6689 0.0000
vt 0.5040 0.5759 0.0000
vt 0.8035 0.4816 0.0000
vt 0.5040 0.4816 0.0000
vt 0.5040 0.5745 0.0000
vt 0.8035 0.6689 0.0000
vt 0.8035 0.5759 0.0000
vt 0.2951 0.2021 0.0000
vt 0.2845 0.2021 0.0000
vt 0.2726 0.8011 0.0000
vt 0.2831 0.8011 0.0000
vt 0.2831 0.2021 0.0000
vt 0.2726 0.2021 0.0000
vt 0.2845 0.8011 0.0000
vt 0.2951 0.8011 0.0000
# 33 texture coords

g default
usemtl None
s off
f 1/1/1 2/2/1 3/3/1 4/4/1 
f 5/5/2 4/4/2 3/3/2 6/6/2 
f 5/5/3 6/6/3 7/7/3 8/8/3 
f 9/9/4 10/10/4 11/11/4 
f 10/10/5 9/9/5 12/12/5 13/10/5 
f 14/13/6 11/11/6 10/10/6 13/10/6 
f 11/11/7 14/13/7 15/14/7 16/15/7 
f 17/16/8 18/17/8 12/12/8 9/9/8 
f 13/10/9 12/12/9 14/13/9 
f 17/16/10 9/9/10 11/11/10 16/15/10 
f 12/12/11 18/17/11 15/14/11 14/13/11 
f 16/18/12 15/19/12 19/20/12 20/21/12 
f 21/22/13 17/23/13 16/18/13 20/21/13 
f 18/24/14 22/25/14 19/20/14 15/19/14 
f 18/24/15 17/23/15 21/22/15 22/25/15 
f 20/26/16 2/27/16 1/28/16 21/29/16 
f 22/30/17 8/31/17 7/32/17 19/33/17 
f 20/26/18 19/33/18 7/32/18 2/27/18 
f 8/31/19 22/30/19 21/29/19 1/28/19 
f 3/3/20 2/2/20 7/7/20 6/6/20 
f 5/5/21 8/8/21 1/1/21 4/4/21 
# 19 polygons - 2 triangles

