# 3ds Max Wavefront OBJ Exporter v0.97b - (c)2007 guruware
# File Created: 14.03.2018 13:29:17

mtllib EMERALDout.mtl

#
# object default
#

v  1.1035 1.7950 -2.7585
v  1.3235 1.6383 -3.0933
v  -1.3165 1.6383 -3.0933
v  -1.0965 1.7950 -2.7585
v  -1.7152 1.7950 2.1299
v  -1.7152 1.7950 -2.1558
v  -2.0590 1.6383 -2.3701
v  -2.0590 1.6383 2.3442
v  1.1035 1.7950 2.7326
v  1.7223 1.7950 2.1299
v  1.7223 1.7950 -2.1558
v  2.0660 1.6383 -2.3701
v  1.3235 1.6383 3.0674
v  2.0660 1.6383 2.3442
v  -2.7465 1.1539 2.7727
v  -2.7465 0.9889 2.7727
v  -1.7565 0.9889 3.7370
v  -1.7565 1.1539 3.7370
v  -1.5365 1.4275 3.4022
v  -2.4027 1.4275 2.5585
v  0.0035 -1.7950 -1.0844
v  0.0035 -1.7950 1.0585
v  -0.4548 -1.4618 1.3442
v  -0.4548 -1.4618 -1.3701
v  0.5902 -1.1287 1.9513
v  0.2969 -1.4618 1.5049
v  0.4619 -1.4618 1.3442
v  0.9202 -1.1287 1.6299
v  1.1769 -0.2734 2.8442
v  -1.1698 -0.2734 2.8442
v  -0.5831 -1.1287 1.9513
v  1.4702 0.3577 3.2906
v  -1.4631 0.3577 3.2906
v  1.8369 -0.2734 2.2013
v  2.2952 0.3577 2.4870
v  1.7635 0.9889 3.7370
v  2.7535 0.9889 2.7727
v  0.2969 -1.4618 -1.5308
v  0.4619 -1.4618 -1.3701
v  0.5902 -1.1287 -1.9772
v  0.9202 -1.1287 -1.6558
v  -0.9131 -1.1287 -1.6558
v  -0.9131 -1.1287 1.6299
v  -1.8298 -0.2734 2.2013
v  -1.8298 -0.2734 -2.2272
v  1.8369 -0.2734 -2.2272
v  1.1769 -0.2734 -2.8701
v  1.4702 0.3577 -3.3165
v  2.2952 0.3577 -2.5130
v  1.7635 0.9889 -3.7630
v  2.7535 0.9889 -2.7987
v  -0.5831 -1.1287 -1.9772
v  -0.2898 -1.4618 -1.5308
v  1.7635 1.1539 3.7370
v  1.5435 1.4275 3.4022
v  -1.0965 1.7950 2.7326
v  -1.3165 1.6383 3.0674
v  2.7535 1.1539 -2.7987
v  2.7535 1.1539 2.7727
v  2.4098 1.4275 -2.5844
v  2.4098 1.4275 2.5585
v  -1.7565 1.1539 -3.7630
v  1.7635 1.1539 -3.7630
v  -1.7565 0.9889 -3.7630
v  -1.5365 1.4275 -3.4281
v  1.5435 1.4275 -3.4281
v  -2.7465 1.1539 -2.7987
v  -2.7465 0.9889 -2.7987
v  -2.4027 1.4275 -2.5844
v  -2.2881 0.3577 2.4870
v  -2.2881 0.3577 -2.5130
v  -1.4631 0.3577 -3.3165
v  -1.1698 -0.2734 -2.8701
v  -0.2898 -1.4618 1.5049
# 74 vertices

vn 0.0000 0.9057 -0.4240
vn -0.4149 0.9099 -0.0000
vn 0.0000 1.0000 -0.0000
vn 0.2583 0.9290 -0.2652
vn 0.2583 0.9290 0.2652
vn -0.6977 0.0000 0.7163
vn -0.3984 0.8210 0.4090
vn -0.5880 -0.8089 -0.0000
vn 0.3741 -0.8441 0.3841
vn 0.0000 -0.7222 0.6917
vn 0.0000 -0.5775 0.8164
vn 0.5366 -0.6391 0.5510
vn 0.3741 -0.8441 -0.3841
vn -0.6822 -0.7312 -0.0000
vn 0.5366 -0.6391 -0.5510
vn 0.5880 -0.8089 -0.0000
vn -0.3741 -0.8441 -0.3841
vn 0.0000 0.0000 1.0000
vn 0.0000 0.7744 0.6327
vn 0.4149 0.9099 -0.0000
vn 0.0000 0.9057 0.4240
vn 0.0000 0.8463 0.5327
vn 1.0000 0.0000 -0.0000
vn 0.6227 0.7825 -0.0000
vn 0.5227 0.8525 -0.0000
vn 0.0000 0.0000 -1.0000
vn 0.0000 0.7744 -0.6327
vn -0.2583 0.9290 0.2652
vn -0.2583 0.9290 -0.2652
vn -0.3295 0.8815 0.3383
vn 0.6977 0.0000 0.7163
vn 0.3984 0.8210 0.4090
vn 0.3295 0.8815 0.3383
vn 0.6977 0.0000 -0.7163
vn 0.3984 0.8210 -0.4090
vn 0.0000 0.8463 -0.5327
vn -1.0000 0.0000 -0.0000
vn 0.3295 0.8815 -0.3383
vn -0.3984 0.8210 -0.4090
vn -0.6977 0.0000 -0.7163
vn -0.3295 0.8815 -0.3383
vn -0.6227 0.7825 -0.0000
vn -0.5227 0.8525 -0.0000
vn -0.8092 -0.5876 -0.0000
vn 0.4409 -0.7750 0.4527
vn -0.5366 -0.6391 -0.5510
vn -0.3741 -0.8441 0.3841
vn 0.4409 -0.7750 -0.4527
vn -0.4409 -0.7750 -0.4527
vn -0.4409 -0.7750 0.4527
vn -0.5366 -0.6391 0.5510
vn 0.8092 -0.5876 -0.0000
vn 0.0000 -0.8014 0.5981
vn 0.6822 -0.7312 -0.0000
vn 0.0000 -0.5775 -0.8164
vn 0.0000 -0.7222 -0.6917
vn 0.0000 -0.8014 -0.5981
# 57 vertex normals

vt 0.1243 0.5978 0.0000
vt 0.1021 0.6116 0.0000
vt 0.1021 0.4463 0.0000
vt 0.1243 0.4601 0.0000
vt 0.0432 0.2893 0.0000
vt 0.0432 0.0138 0.0000
vt 0.0669 0.0000 0.0000
vt 0.0669 0.3030 0.0000
vt 0.1007 0.5978 0.0000
vt 0.0804 0.2893 0.0000
vt 0.0804 0.0138 0.0000
vt 0.1041 0.0000 0.0000
vt 0.0785 0.6116 0.0000
vt 0.1041 0.3030 0.0000
vt 0.1442 0.0000 0.0000
vt 0.1338 0.0000 0.0000
vt 0.3506 0.5782 0.0000
vt 0.3506 0.5694 0.0000
vt 0.3506 0.5900 0.0000
vt 0.3766 0.6038 0.0000
vt 0.6556 0.2985 0.0000
vt 0.6419 0.3260 0.0000
vt 0.0000 0.0000 0.0000
vt 0.3965 0.6248 0.0000
vt 0.5709 0.6248 0.0000
vt 0.3781 0.8054 0.0000
vt 0.4128 0.7870 0.0000
vt 0.3965 0.6957 0.0000
vt 0.3781 0.7304 0.0000
vt 0.9505 0.1492 0.0000
vt 0.8036 0.1492 0.0000
vt 0.3781 0.7319 0.0000
vt 0.9689 0.1981 0.0000
vt 0.7852 0.1981 0.0000
vt 0.3491 0.3949 0.0000
vt 0.3010 0.3765 0.0000
vt 0.9872 0.2469 0.0000
vt 0.2530 0.3581 0.0000
vt 0.5526 0.6610 0.0000
vt 0.5443 0.3581 0.0000
vt 0.5627 0.3929 0.0000
vt 0.5709 0.6957 0.0000
vt 0.5811 0.4276 0.0000
vt 0.5893 0.7304 0.0000
vt 0.7668 0.2469 0.0000
vt 0.5893 0.6595 0.0000
vt 0.3781 0.6595 0.0000
vt 0.2477 0.0366 0.0000
vt 0.2477 0.3201 0.0000
vt 0.3491 0.6795 0.0000
vt 0.9505 0.0000 0.0000
vt 0.9689 0.0488 0.0000
vt 0.3010 0.6979 0.0000
vt 0.9872 0.0976 0.0000
vt 0.2530 0.7162 0.0000
vt 0.5076 0.4276 0.0000
vt 0.5260 0.3929 0.0000
vt 0.5710 0.5782 0.0000
vt 0.5710 0.5694 0.0000
vt 0.3506 0.8104 0.0000
vt 0.3766 0.7966 0.0000
vt 0.1007 0.4601 0.0000
vt 0.0785 0.4463 0.0000
vt 0.4175 0.5679 0.0000
vt 0.6103 0.5679 0.0000
vt 0.5965 0.5441 0.0000
vt 0.4312 0.5441 0.0000
vt 0.1176 0.3567 0.0000
vt 0.1279 0.3567 0.0000
vt 0.1279 0.0000 0.0000
vt 0.1176 0.0000 0.0000
vt 0.9848 0.3405 0.0000
vt 0.6556 0.3405 0.0000
vt 0.6419 0.3680 0.0000
vt 0.9985 0.3680 0.0000
vt 0.1748 0.6887 0.0000
vt 0.1748 0.3581 0.0000
vt 0.1510 0.3719 0.0000
vt 0.1510 0.6749 0.0000
vt 0.3506 0.5797 0.0000
vt 0.5710 0.5797 0.0000
vt 0.5710 0.5886 0.0000
vt 0.3506 0.5886 0.0000
vt 0.0000 0.2204 0.0000
vt 0.0275 0.0138 0.0000
vt 0.0275 0.2066 0.0000
vt 0.1258 0.7631 0.0000
vt 0.1496 0.7769 0.0000
vt 0.6267 0.7924 0.0000
vt 0.6404 0.8162 0.0000
vt 0.4490 0.8162 0.0000
vt 0.4627 0.7924 0.0000
vt 0.1442 0.3567 0.0000
vt 0.1338 0.3567 0.0000
vt 0.9848 0.2985 0.0000
vt 0.9985 0.3260 0.0000
vt 0.1496 0.4463 0.0000
vt 0.1258 0.4601 0.0000
vt 0.1989 0.0183 0.0000
vt 0.1989 0.3384 0.0000
vt 0.1501 0.0000 0.0000
vt 0.1501 0.3567 0.0000
vt 0.7852 0.0488 0.0000
vt 0.8036 0.0000 0.0000
vt 0.7668 0.0976 0.0000
vt 0.4148 0.5900 0.0000
vt 0.4476 0.7686 0.0000
vt 0.4128 0.7503 0.0000
# 108 texture coords

g default
usemtl None
s off
f 1/1/1 2/2/1 3/3/1 4/4/1 
f 5/5/2 6/6/2 7/7/2 8/8/2 
f 9/9/3 10/10/3 11/11/3 1/1/3 
f 11/11/4 12/12/4 2/2/4 1/1/4 
f 13/13/5 14/14/5 10/10/5 9/9/5 
f 15/15/6 16/16/6 17/17/6 18/18/6 
f 18/19/7 19/20/7 20/21/7 15/22/7 
f 21/23/8 22/23/8 23/24/8 24/25/8 
f 25/26/9 26/27/9 27/28/9 28/29/9 
f 25/26/10 29/30/10 30/31/10 31/32/10 
f 32/33/11 33/34/11 30/31/11 29/30/11 
f 34/35/12 35/36/12 32/33/12 29/30/12 
f 36/37/12 32/33/12 35/36/12 37/38/12 
f 21/39/13 21/40/13 38/41/13 39/42/13 
f 40/43/13 41/44/13 39/42/13 38/41/13 
f 17/45/11 33/34/11 32/33/11 36/37/11 
f 42/46/8 24/25/8 23/24/8 43/47/8 
f 44/48/14 45/49/14 42/46/14 43/47/14 
f 46/50/15 47/51/15 48/52/15 49/53/15 
f 50/54/15 51/55/15 49/53/15 48/52/15 
f 39/42/16 27/28/16 22/23/16 21/23/16 
f 52/56/17 53/57/17 24/25/17 42/46/17 
f 18/18/18 17/17/18 36/58/18 54/59/18 
f 18/19/19 54/60/19 55/61/19 19/20/19 
f 14/14/20 12/12/20 11/11/20 10/10/20 
f 9/9/21 56/62/21 57/63/21 13/13/21 
f 19/64/22 55/65/22 13/66/22 57/67/22 
f 51/68/23 58/69/23 59/70/23 37/71/23 
f 60/72/24 61/73/24 59/74/24 58/75/24 
f 61/76/25 60/77/25 12/78/25 14/79/25 
f 62/80/26 63/81/26 50/82/26 64/83/26 
f 63/84/27 62/23/27 65/85/27 66/86/27 
f 6/6/3 5/5/3 56/62/3 4/4/3 
f 1/1/3 4/4/3 56/62/3 9/9/3 
f 57/63/28 56/62/28 5/5/28 8/8/28 
f 3/3/29 7/7/29 6/6/29 4/4/29 
f 19/64/30 57/67/30 8/87/30 20/88/30 
f 36/58/31 37/71/31 59/70/31 54/59/31 
f 54/60/32 59/74/32 61/73/32 55/61/32 
f 14/79/33 13/66/33 55/65/33 61/76/33 
f 63/81/34 58/69/34 51/68/34 50/82/34 
f 60/72/35 58/75/35 63/84/35 66/86/35 
f 2/89/36 66/90/36 65/91/36 3/92/36 
f 15/15/37 67/93/37 68/94/37 16/16/37 
f 12/78/38 60/77/38 66/90/38 2/89/38 
f 69/95/39 65/85/39 62/23/39 67/96/39 
f 68/94/40 67/93/40 62/80/40 64/83/40 
f 65/91/41 69/97/41 7/98/41 3/92/41 
f 15/22/42 20/21/42 69/95/42 67/96/42 
f 8/87/43 7/98/43 69/97/43 20/88/43 
f 44/48/44 70/99/44 71/100/44 45/49/44 
f 71/100/44 70/99/44 16/101/44 68/102/44 
f 28/29/45 34/35/45 29/30/45 25/26/45 
f 45/49/46 71/100/46 72/103/46 73/104/46 
f 64/105/46 72/103/46 71/100/46 68/102/46 
f 22/106/47 22/107/47 74/108/47 23/24/47 
f 23/24/47 74/108/47 31/32/47 43/47/47 
f 47/51/48 46/50/48 41/44/48 40/43/48 
f 42/46/49 45/49/49 73/104/49 52/56/49 
f 30/31/50 44/48/50 43/47/50 31/32/50 
f 44/48/51 30/31/51 33/34/51 70/99/51 
f 17/45/51 16/101/51 70/99/51 33/34/51 
f 28/29/16 27/28/16 39/42/16 41/44/16 
f 46/50/52 49/53/52 35/36/52 34/35/52 
f 37/38/52 35/36/52 49/53/52 51/55/52 
f 25/26/53 31/32/53 74/108/53 26/27/53 
f 46/50/54 34/35/54 28/29/54 41/44/54 
f 50/54/55 48/52/55 72/103/55 64/105/55 
f 72/103/55 48/52/55 47/51/55 73/104/55 
f 40/43/56 52/56/56 73/104/56 47/51/56 
f 38/41/57 53/57/57 52/56/57 40/43/57 
f 27/28/9 26/27/9 22/23/9 
f 74/108/53 22/23/53 26/27/53 
f 53/57/57 38/41/57 21/40/57 21/39/57 
f 21/39/17 24/25/17 53/57/17 
# 72 polygons - 3 triangles

