# Blender v2.79 (sub 0) OBJ File: 'princess.blend'
# www.blender.org
mtllib otprincess.mtl
o PRINCESS
v -2.395911 1.077805 -2.102670
v -1.624718 1.467098 -1.629064
v -2.098324 1.077805 -2.400258
v -2.995911 0.609457 -3.000258
v 0.004086 -3.002903 -0.000261
v 0.004086 -2.831277 -0.300260
v 0.004086 -2.317150 -1.050260
v 0.004086 -2.596896 -0.675260
v 0.004086 -1.978534 -1.425259
v 0.004086 1.467098 -1.800259
v 0.004086 1.077805 -2.400258
v -1.795912 -1.549321 -0.000260
v -2.395911 1.077805 2.102150
v -2.098324 1.077805 2.399738
v -1.624718 1.467098 1.628544
v -2.995911 0.609457 2.999737
v 0.004086 -1.549321 1.799738
v -1.420912 -1.978534 -0.000260
v -0.670913 -2.596896 -0.000260
v -1.045913 -2.317150 -0.000261
v -0.295913 -2.831277 -0.000261
v -2.395911 1.077805 -0.000260
v -1.795912 1.467098 -0.000260
v 2.404085 1.077805 -2.102670
v 2.106496 1.077805 -2.400258
v 1.632890 1.467098 -1.629064
v 3.004084 0.609457 -3.000258
v 0.004086 -1.549320 -1.800259
v 1.429085 -1.978534 -0.000260
v 0.679085 -2.596896 -0.000260
v 1.054085 -2.317150 -0.000261
v 0.304086 -2.831277 -0.000261
v 2.404085 1.077805 -0.000260
v 0.004086 1.077805 2.399738
v 2.404085 1.077805 2.102150
v 1.632890 1.467098 1.628544
v 2.106496 1.077805 2.399738
v 3.004084 0.609457 2.999737
v 3.004084 0.450809 2.999737
v 3.004084 0.450810 -3.000258
v -2.995911 0.450809 2.999737
v -2.995911 0.450810 -3.000258
v 0.004086 -2.831277 0.299739
v 0.004086 -2.317150 1.049739
v 0.004086 -2.596896 0.674739
v 0.004086 -1.978534 1.424738
v 0.004086 1.467098 1.799738
v 1.804084 -1.549321 -0.000260
v 1.804084 1.467098 -0.000260
vt 0.055854 0.636639
vt 0.000000 0.634657
vt 0.051587 0.613152
vt 0.118351 0.613152
vt 0.594709 0.451199
vt 0.635289 0.451199
vt 0.637250 0.000000
vt 0.637250 0.040580
vt 0.055854 0.606521
vt 0.051587 0.583034
vt 0.000000 0.604538
vt 0.118351 0.583034
vt 0.000000 0.000000
vt 0.000000 0.000000
vt 0.022022 0.694857
vt 0.001859 0.643271
vt 0.045509 0.761621
vt 0.045509 0.694857
vt 0.022022 0.761621
vt 0.023487 0.699125
vt 0.000000 0.699125
vt 0.000000 0.000000
vt 0.025346 0.643271
vt 0.000000 0.000000
vt 0.000000 0.000000
vt 0.022022 0.761621
vt 0.000000 0.000000
vt 0.045509 0.761621
vt 0.118351 0.613152
vt 0.118351 0.583034
vt 0.000000 0.000000
vt 0.000000 0.000000
vt 0.000000 0.000000
vt 0.000000 0.000000
vt 0.000000 0.000000
vt 0.000000 0.000000
vt 0.000000 0.000000
vt 0.000000 0.000000
vt 0.000000 0.000000
vt 0.000000 0.000000
vt 0.000000 0.000000
vt 0.000000 0.000000
vt 0.000000 0.000000
vt 0.000000 0.000000
vt 0.000000 0.000000
vt 0.000000 0.000000
vt 0.000000 0.000000
vt 0.000000 0.000000
vt 0.000000 0.000000
vt 0.000000 0.000000
vt 0.000000 0.000000
vt 0.000000 0.000000
vt 0.000000 0.000000
vn -0.2860 0.9145 -0.2860
vn -0.0224 0.8727 -0.4878
vn -0.4878 0.8727 -0.0224
vn -0.2860 0.9145 0.2860
vn -0.4878 0.8727 0.0224
vn 0.0224 0.8727 0.4878
vn 0.0000 0.7883 -0.6153
vn 0.6153 0.7883 0.0000
vn 0.0000 0.7883 0.6153
vn -0.6153 0.7883 0.0000
vn 0.0000 1.0000 0.0000
vn 0.2860 0.9145 -0.2860
vn 0.0224 0.8727 -0.4878
vn 0.2418 -0.7202 0.6503
vn -0.0224 0.8727 0.4878
vn 0.4878 0.8727 0.0224
vn 0.4878 0.8727 -0.0224
vn 0.2860 0.9145 0.2860
vn 0.0000 0.0000 -1.0000
vn 1.0000 0.0000 0.0000
vn -1.0000 0.0000 0.0000
vn 0.0000 0.0000 1.0000
vn 0.0000 -0.5145 -0.8575
vn -0.8575 -0.5145 -0.0000
vn 0.0000 -0.5145 0.8575
vn 0.8575 -0.5145 -0.0000
vn -0.7461 -0.6518 0.1362
vn -0.7461 -0.6518 -0.1362
vn 0.1362 -0.6518 0.7461
vn -0.1362 -0.6518 0.7461
vn 0.7461 -0.6518 0.1362
vn 0.7461 -0.6518 -0.1362
vn 0.1362 -0.6518 -0.7461
vn -0.1362 -0.6518 -0.7461
vn -0.4437 -0.7755 -0.4491
vn -0.4437 -0.7755 0.4491
vn -0.4491 -0.7755 0.4437
vn 0.4491 -0.7755 0.4437
vn 0.4437 -0.7755 -0.4491
vn 0.4437 -0.7755 0.4491
vn 0.4491 -0.7755 -0.4437
vn -0.4491 -0.7755 -0.4437
vn 0.6503 -0.7202 0.2418
vn -0.2418 -0.7202 0.6503
vn 0.6503 -0.7202 -0.2418
vn 0.2418 -0.7202 -0.6503
vn -0.2418 -0.7202 -0.6503
vn -0.4109 -0.7731 -0.4832
vn -0.4832 -0.7731 0.4109
vn 0.4109 -0.7731 0.4832
vn 0.4832 -0.7731 -0.4109
vn -0.4109 -0.7731 0.4832
vn 0.4832 -0.7731 0.4109
vn -0.4832 -0.7731 -0.4109
vn 0.4109 -0.7731 -0.4832
vn -0.6503 -0.7202 0.2418
vn -0.6503 -0.7202 -0.2418
vn -0.5642 -0.7563 0.3311
vn -0.5642 -0.7563 -0.3311
vn -0.3311 -0.7563 0.5642
vn 0.3311 -0.7563 0.5642
vn 0.5642 -0.7563 0.3311
vn 0.5642 -0.7563 -0.3311
vn -0.3311 -0.7563 -0.5642
vn 0.3311 -0.7563 -0.5642
usemtl None
s off
f 1/1/1 2/2/1 3/3/1
f 3/3/1 4/4/1 1/1/1
f 11/5/2 3/3/2 2/2/2 10/6/2
f 23/7/3 2/2/3 1/1/3 22/8/3
f 13/9/4 14/10/4 15/11/4
f 14/10/4 13/9/4 16/12/4
f 15/11/5 23/7/5 22/8/5 13/9/5
f 47/13/6 34/14/6 37/15/6 36/16/6
f 27/17/7 4/4/7 3/3/7 25/18/7
f 38/19/8 27/17/8 24/20/8 35/21/8
f 16/12/9 38/19/9 37/15/9 14/10/9
f 4/4/10 16/12/10 13/9/10 1/1/10
f 23/7/11 47/13/11 49/22/11 10/6/11
f 23/7/11 15/11/11 47/13/11
f 24/20/12 25/18/12 26/23/12
f 25/18/12 24/20/12 27/17/12
f 25/18/13 11/5/13 10/6/13 26/23/13
f 46/24/14 44/25/14 39/26/14
f 34/14/15 47/13/15 15/11/15 14/10/15
f 36/16/16 35/21/16 33/27/16 49/22/16
f 49/22/11 47/13/11 36/16/11
f 49/22/17 33/27/17 24/20/17 26/23/17
f 26/23/11 10/6/11 49/22/11
f 2/2/11 23/7/11 10/6/11
f 35/21/18 36/16/18 37/15/18
f 37/15/18 38/19/18 35/21/18
f 4/4/19 27/17/19 40/28/19 42/29/19
f 27/17/20 38/19/20 39/26/20 40/28/20
f 16/12/21 4/4/21 42/29/21 41/30/21
f 38/19/22 16/12/22 41/30/22 39/26/22
f 42/29/23 40/28/23 28/31/23
f 41/30/24 42/29/24 12/32/24
f 39/26/25 41/30/25 17/33/25
f 40/28/26 39/26/26 48/34/26
f 41/30/27 12/32/27 18/35/27
f 12/32/28 42/29/28 18/35/28
f 39/26/29 17/33/29 46/24/29
f 17/33/30 41/30/30 46/24/30
f 48/34/31 39/26/31 29/36/31
f 48/34/32 29/36/32 40/28/32
f 28/31/33 40/28/33 9/37/33
f 28/31/34 9/37/34 42/29/34
f 42/38/35 5/39/35 21/40/35
f 41/41/36 21/40/36 5/39/36
f 41/41/37 5/39/37 43/42/37
f 39/43/38 43/42/38 5/39/38
f 40/44/39 32/45/39 5/39/39
f 39/43/40 5/39/40 32/45/40
f 40/44/41 5/39/41 6/46/41
f 42/38/42 6/46/42 5/39/42
f 29/36/43 39/26/43 31/47/43
f 46/24/44 41/30/44 44/25/44
f 29/36/45 31/47/45 40/28/45
f 9/37/46 40/28/46 7/48/46
f 9/37/47 7/48/47 42/29/47
f 6/46/48 42/38/48 8/49/48
f 21/40/49 41/41/49 19/50/49
f 43/42/50 39/43/50 45/51/50
f 32/45/51 40/44/51 30/52/51
f 43/42/52 45/51/52 41/41/52
f 32/45/53 30/52/53 39/43/53
f 21/40/54 19/50/54 42/38/54
f 6/46/55 8/49/55 40/44/55
f 18/35/56 20/53/56 41/30/56
f 18/35/57 42/29/57 20/53/57
f 41/30/58 20/53/58 19/50/58
f 42/29/59 19/50/59 20/53/59
f 41/41/60 45/51/60 44/25/60
f 39/43/61 44/25/61 45/51/61
f 39/43/62 30/52/62 31/47/62
f 40/44/63 31/47/63 30/52/63
f 42/38/64 7/48/64 8/49/64
f 40/44/65 8/49/65 7/48/65
