ply
format ascii 1.0
comment Created by Blender 2.79 (sub 0) - www.blender.org, source file: ''
element vertex 8
property float x
property float y
property float z
element face 6
property list uchar uint vertex_indices
end_header
-0.500000 0.500000 -0.500000
-0.500000 -0.500000 -0.500000
-0.500000 -0.500000 0.500000
-0.500000 0.500000 0.500000
0.500000 -0.500000 0.500000
0.500000 0.500000 0.500000
0.500000 -0.500000 -0.500000
0.500000 0.500000 -0.500000
4 0 1 2 3
4 3 2 4 5
4 5 4 6 7
4 1 0 7 6
4 7 0 3 5
4 4 2 1 6
