# Blender v2.79 (sub 0) OBJ File: ''
# www.blender.org
mtllib pivot.mtl
o Cube_Cube.001
v -1.851262 0.079463 -0.006307
v -1.851262 0.073412 -0.006307
v -1.851262 0.079463 -0.003876
v -1.851262 0.073412 -0.003876
v -1.806989 0.079463 -0.006307
v -1.806989 0.073412 -0.006307
v -1.806989 0.079463 -0.003876
v -1.806989 0.073412 -0.003876
v 0.001497 0.084962 -1.862015
v 0.001497 0.084962 -1.804331
v 0.001497 0.072798 -1.804331
v -0.003254 0.072798 -1.804331
v -0.003254 0.084962 -1.804331
v -0.003254 0.084962 -1.862015
v 0.001497 0.072798 -1.862015
v -0.003254 0.072798 -1.862015
v -1.920183 0.057020 -0.001057
v -1.920183 0.081828 -0.001631
v -1.895055 0.081828 -0.001631
v -1.895183 0.056828 -0.001631
v -1.895183 0.031828 -0.001631
v -1.870183 0.056828 -0.001631
v -1.945222 0.081828 -0.001631
v -1.945183 0.056828 -0.001631
v -1.970183 0.056828 -0.001631
v -1.945183 0.031828 -0.001631
v -1.970183 0.031828 -0.001631
v -1.945183 0.106828 -0.001631
v -1.920183 0.107075 -0.001631
v -1.945183 0.131828 -0.001631
v -1.970183 0.106828 -0.001631
v -1.895183 0.106828 -0.001631
v -1.870183 0.106828 -0.001631
v -1.895183 0.131828 -0.001631
v -1.870183 0.131828 -0.001631
v -1.895055 0.081815 -0.010920
v -1.920183 0.081815 -0.010920
v -1.920183 0.057007 -0.010346
v -1.895183 0.031815 -0.010920
v -1.895183 0.056815 -0.010920
v -1.870183 0.056815 -0.010920
v -1.945222 0.081815 -0.010920
v -1.970183 0.056815 -0.010920
v -1.945183 0.056815 -0.010920
v -1.945183 0.031815 -0.010920
v -1.970183 0.031815 -0.010920
v -1.920183 0.107062 -0.010920
v -1.945183 0.106815 -0.010920
v -1.945183 0.131815 -0.010920
v -1.970183 0.106815 -0.010920
v -1.895183 0.106815 -0.010920
v -1.870183 0.106815 -0.010920
v -1.895183 0.131815 -0.010920
v -1.870183 0.131815 -0.010920
v -1.970183 0.131815 -0.010920
v -1.970183 0.131828 -0.001631
v -1.870183 0.031828 -0.001631
v -1.870183 0.031815 -0.010920
v 0.004668 0.051588 -1.905478
v 0.004758 0.076588 -1.932182
v 0.004674 0.076588 -1.907182
v 0.004753 0.051496 -1.930631
v 0.004843 0.076588 -1.957181
v 0.004843 0.101588 -1.957181
v 0.004758 0.126588 -1.932182
v 0.004758 0.101588 -1.932053
v 0.004862 0.082355 -1.962974
v 0.004843 0.126588 -1.957181
v 0.004927 0.101588 -1.982181
v 0.004927 0.051588 -1.982181
v 0.004843 0.026588 -1.957181
v 0.004927 0.026588 -1.982181
v 0.004758 0.026588 -1.932182
v 0.004589 0.051588 -1.882221
v 0.004591 0.026108 -1.882680
v -0.004664 0.076588 -1.907213
v -0.004580 0.076588 -1.932213
v -0.004670 0.051588 -1.905509
v 0.004674 0.126588 -1.907182
v -0.004585 0.051496 -1.930662
v 0.004589 0.101588 -1.882182
v -0.004580 0.101588 -1.932085
v -0.004495 0.101588 -1.957213
v 0.004589 0.126588 -1.882182
v -0.004580 0.126588 -1.932213
v -0.004475 0.082355 -1.963005
v -0.004495 0.076588 -1.957213
v -0.004411 0.101588 -1.982213
v -0.004495 0.126588 -1.957213
v -0.004495 0.026588 -1.957213
v -0.004411 0.051588 -1.982213
v -0.004411 0.026588 -1.982213
v -0.004580 0.026588 -1.932213
v -0.004749 0.051588 -1.882252
v -0.004747 0.026108 -1.882711
v -0.004664 0.126588 -1.907213
v -0.004749 0.101588 -1.882213
v -0.004749 0.126588 -1.882213
v 0.004927 0.126588 -1.982181
v -0.004411 0.126588 -1.982213
v -0.101301 1.946399 0.000000
v -0.087944 1.946567 0.000000
v -0.087944 1.921567 0.000000
v -0.101301 1.896567 0.000000
v -0.101301 1.921567 0.000000
v -0.114657 1.946567 0.000000
v -0.151301 1.996567 0.000000
v -0.126301 1.996567 0.000000
v -0.114657 1.921567 0.000000
v -0.076301 1.996567 0.000000
v -0.051301 1.996567 0.000000
v -0.101301 1.946399 -0.009988
v -0.101301 1.921567 -0.009988
v -0.087944 1.921567 -0.009988
v -0.101301 1.896567 -0.009988
v -0.114657 1.946567 -0.009988
v -0.126301 1.996567 -0.009988
v -0.151301 1.996567 -0.009988
v -0.114657 1.921567 -0.009988
v -0.087944 1.946567 -0.009988
v -0.051301 1.996567 -0.009988
v -0.076301 1.996567 -0.009988
v -0.114657 1.896567 0.000000
v -0.114657 1.896567 -0.009988
v -0.087944 1.896567 0.000000
v -0.087944 1.896567 -0.009988
v -1.973366 0.003286 0.012814
v 0.011008 0.002285 -0.011549
v 0.011008 0.001846 0.012814
v -1.973366 -0.012226 0.000632
v 0.011008 0.012138 0.000632
v 0.011008 -0.012226 0.000632
v -0.013417 -0.000044 -1.993134
v 0.010946 -0.000044 0.006866
v -0.013417 -0.000044 0.006866
v -0.001236 0.012138 -1.993134
v -0.001236 -0.012226 0.006866
v -0.001236 0.012138 0.006866
v -0.013417 -0.001865 0.000632
v 0.010946 1.998135 0.000632
v -0.013417 1.998135 0.000632
v -0.001236 -0.001865 0.012814
v -0.001236 1.998135 -0.011549
v -0.001236 1.998135 0.012814
v -1.973366 0.003286 -0.011549
v -1.973366 0.012138 0.000632
v 0.010946 -0.000044 -1.993134
v -0.001236 -0.012226 -1.993134
v 0.010946 -0.001865 0.000632
v -0.001236 -0.001865 -0.011549
vn -1.0000 0.0000 0.0000
vn 0.0000 0.0000 1.0000
vn 1.0000 0.0000 0.0000
vn 0.0000 0.0000 -1.0000
vn 0.0000 1.0000 0.0000
vn 0.0000 -1.0000 0.0000
vn 0.0000 -0.0231 -0.9997
vn -0.0230 0.0000 -0.9997
vn 0.0230 0.0000 -0.9997
vn 0.0000 0.0231 0.9997
vn 0.0230 -0.0000 0.9997
vn -0.0230 -0.0000 0.9997
vn 0.7036 -0.7106 0.0010
vn -0.7089 0.7053 -0.0010
vn -0.7089 -0.7053 0.0010
vn 0.0000 -1.0000 0.0014
vn -0.7098 0.7044 -0.0010
vn 0.7077 0.7066 -0.0010
vn 0.7098 0.7044 -0.0010
vn 0.7077 -0.7066 0.0010
vn 0.0000 1.0000 -0.0014
vn -0.7036 -0.7106 0.0010
vn 1.0000 -0.0000 0.0034
vn 1.0000 0.0000 0.0033
vn -1.0000 0.0000 -0.0034
vn -1.0000 0.0000 -0.0035
vn 0.0024 -0.7087 -0.7055
vn -0.0024 0.7053 0.7089
vn 0.0000 -1.0000 -0.0097
vn -0.0000 1.0000 0.0018
vn 0.0023 -0.7268 -0.6869
vn 0.0034 0.0000 -1.0000
vn -0.0023 0.7066 0.7077
vn 0.0023 -0.7066 -0.7076
vn -0.0033 0.0000 1.0000
vn -0.0033 -0.0180 0.9998
vn 0.8950 -0.4460 0.0000
vn -0.8066 0.5911 0.0000
vn 0.8066 0.5911 0.0000
vn -0.8950 -0.4460 0.0000
vn -0.0007 -0.9998 -0.0180
vn -0.0005 -1.0000 0.0000
vn -0.0230 0.0001 -0.9997
vn 0.0230 -0.0001 0.9997
vn 0.0023 -0.7086 -0.7056
vn 0.0024 -0.7268 -0.6868
vn 0.0024 -0.7067 -0.7076
usemtl None
s off
f 1//1 2//1 4//1 3//1
f 3//2 4//2 8//2 7//2
f 7//3 8//3 6//3 5//3
f 5//4 6//4 2//4 1//4
f 3//5 7//5 5//5 1//5
f 8//6 4//6 2//6 6//6
f 9//3 10//3 11//3
f 12//1 13//1 14//1
f 9//4 15//4 16//4
f 11//2 10//2 13//2
f 15//6 11//6 12//6
f 10//5 9//5 14//5
f 17//7 18//7 19//7
f 17//8 20//8 21//8
f 19//4 22//4 20//4
f 21//4 20//4 22//4
f 23//7 18//7 17//7
f 23//4 24//4 25//4
f 17//9 26//9 24//9
f 24//4 26//4 27//4
f 18//4 23//4 28//4
f 29//4 28//4 30//4
f 23//4 31//4 28//4
f 30//4 28//4 31//4
f 18//4 29//4 32//4
f 19//4 32//4 33//4
f 29//4 34//4 32//4
f 32//4 34//4 35//4
f 36//10 37//10 38//10
f 38//11 39//11 40//11
f 36//2 40//2 41//2
f 41//2 40//2 39//2
f 38//10 37//10 42//10
f 42//2 43//2 44//2
f 38//12 44//12 45//12
f 44//2 43//2 46//2
f 37//2 47//2 48//2
f 47//2 49//2 48//2
f 42//2 48//2 50//2
f 50//2 48//2 49//2
f 37//2 36//2 51//2
f 36//2 52//2 51//2
f 47//2 51//2 53//2
f 51//2 52//2 54//2
f 29//13 47//13 53//13
f 27//3 46//3 43//3
f 19//14 33//14 52//14
f 31//3 50//3 55//3
f 33//1 35//1 54//1
f 22//15 19//15 36//15
f 30//16 56//16 55//16
f 26//17 17//17 38//17
f 23//18 42//18 50//18
f 21//19 39//19 38//19
f 25//20 43//20 42//20
f 57//1 22//1 41//1
f 35//16 34//16 53//16
f 21//21 57//21 58//21
f 29//22 30//22 49//22
f 27//21 26//21 45//21
f 59//23 60//23 61//23
f 62//23 63//23 60//23
f 60//23 63//23 64//23
f 65//23 66//23 64//23
f 64//24 63//24 67//24
f 68//23 64//23 69//23
f 60//23 66//23 61//23
f 70//23 71//23 72//23
f 73//23 62//23 59//23
f 74//23 75//23 59//23
f 76//25 77//25 78//25
f 75//23 73//23 59//23
f 79//23 66//23 65//23
f 80//25 78//25 77//25
f 66//23 79//23 81//23
f 77//25 82//25 83//25
f 79//23 84//23 81//23
f 83//25 82//25 85//25
f 86//26 87//26 83//26
f 88//25 83//25 89//25
f 77//25 76//25 82//25
f 90//25 91//25 92//25
f 93//25 78//25 80//25
f 94//25 78//25 95//25
f 95//25 78//25 93//25
f 96//25 85//25 82//25
f 82//25 97//25 96//25
f 96//25 97//25 98//25
f 67//27 63//27 87//27
f 66//28 82//28 76//28
f 68//5 89//5 85//5
f 73//29 75//29 95//29
f 65//5 85//5 96//5
f 70//30 91//30 80//30
f 71//6 73//6 93//6
f 79//5 96//5 98//5
f 72//6 71//6 90//6
f 63//31 62//31 80//31
f 70//32 72//32 92//32
f 66//6 81//6 97//6
f 61//33 76//33 94//33
f 69//34 67//34 86//34
f 99//32 69//32 88//32
f 81//35 84//35 98//35
f 75//36 74//36 94//36
f 99//5 100//5 89//5
f 101//4 102//4 103//4
f 104//4 105//4 103//4
f 106//4 107//4 108//4
f 101//4 105//4 109//4
f 109//4 105//4 104//4
f 102//4 110//4 111//4
f 106//4 108//4 101//4
f 102//4 101//4 110//4
f 112//2 113//2 114//2
f 114//2 113//2 115//2
f 116//2 117//2 118//2
f 112//2 116//2 119//2
f 115//2 113//2 119//2
f 120//2 121//2 122//2
f 116//2 112//2 117//2
f 120//2 122//2 112//2
f 109//3 123//3 124//3
f 108//6 107//6 118//6
f 104//5 125//5 126//5
f 110//37 101//37 112//37
f 111//6 110//6 122//6
f 106//3 109//3 119//3
f 123//5 104//5 115//5
f 103//1 102//1 120//1
f 102//38 111//38 121//38
f 107//39 106//39 116//39
f 125//1 103//1 114//1
f 101//40 108//40 117//40
f 127//41 128//41 129//41
f 130//4 131//4 132//4
f 133//6 134//6 135//6
f 136//1 137//1 138//1
f 139//2 140//2 141//2
f 142//3 143//3 144//3
f 127//42 145//42 128//42
f 130//4 146//4 131//4
f 133//6 147//6 134//6
f 136//1 148//1 137//1
f 139//2 149//2 140//2
f 142//3 150//3 143//3
f 9//3 11//3 15//3
f 12//1 14//1 16//1
f 9//4 16//4 14//4
f 11//2 13//2 12//2
f 15//6 12//6 16//6
f 10//5 14//5 13//5
f 17//43 19//43 20//43
f 21//4 22//4 57//4
f 23//9 17//9 24//9
f 24//4 27//4 25//4
f 18//4 28//4 29//4
f 30//4 31//4 56//4
f 18//4 32//4 19//4
f 32//4 35//4 33//4
f 36//44 38//44 40//44
f 41//2 39//2 58//2
f 38//12 42//12 44//12
f 44//2 46//2 45//2
f 37//2 48//2 42//2
f 50//2 49//2 55//2
f 37//2 51//2 47//2
f 51//2 54//2 53//2
f 29//13 53//13 34//13
f 27//3 43//3 25//3
f 19//14 52//14 36//14
f 31//3 55//3 56//3
f 33//1 54//1 52//1
f 22//15 36//15 41//15
f 30//16 55//16 49//16
f 26//17 38//17 45//17
f 23//18 50//18 31//18
f 21//19 38//19 17//19
f 25//20 42//20 23//20
f 57//1 41//1 58//1
f 35//16 53//16 54//16
f 21//21 58//21 39//21
f 29//22 49//22 47//22
f 27//21 45//21 46//21
f 59//23 61//23 74//23
f 62//23 60//23 59//23
f 60//23 64//23 66//23
f 65//23 64//23 68//23
f 64//23 67//23 69//23
f 68//23 69//23 99//23
f 73//23 71//23 62//23
f 62//23 71//23 70//23
f 76//25 78//25 94//25
f 80//25 77//25 87//25
f 77//25 83//25 87//25
f 83//25 85//25 89//25
f 86//25 83//25 88//25
f 88//25 89//25 100//25
f 91//25 90//25 80//25
f 80//25 90//25 93//25
f 67//45 87//45 86//45
f 66//28 76//28 61//28
f 68//5 85//5 65//5
f 73//29 95//29 93//29
f 65//5 96//5 79//5
f 70//30 80//30 62//30
f 71//6 93//6 90//6
f 79//5 98//5 84//5
f 72//6 90//6 92//6
f 63//46 80//46 87//46
f 70//32 92//32 91//32
f 66//6 97//6 82//6
f 61//33 94//33 74//33
f 69//47 86//47 88//47
f 99//32 88//32 100//32
f 81//35 98//35 97//35
f 75//36 94//36 95//36
f 99//5 89//5 68//5
f 101//4 103//4 105//4
f 104//4 103//4 125//4
f 101//4 109//4 106//4
f 109//4 104//4 123//4
f 112//2 114//2 120//2
f 114//2 115//2 126//2
f 112//2 119//2 113//2
f 115//2 119//2 124//2
f 109//3 124//3 119//3
f 108//6 118//6 117//6
f 104//5 126//5 115//5
f 110//37 112//37 122//37
f 111//6 122//6 121//6
f 106//3 119//3 116//3
f 123//5 115//5 124//5
f 103//1 120//1 114//1
f 102//38 121//38 120//38
f 107//39 116//39 118//39
f 125//1 114//1 126//1
f 101//40 117//40 112//40
