# Blender v2.79 (sub 0) OBJ File: ''
# www.blender.org
mtllib max.mtl
o max
v -1.452852 0.093649 0.226200
v -1.206431 0.093649 0.476200
v -1.206431 0.093649 0.226200
v -1.452852 0.093649 0.476200
v -1.206431 0.093649 0.726200
v -0.713589 0.093649 0.476200
v -0.467168 0.093649 0.226200
v -0.713589 0.093649 0.226200
v -0.713589 0.093649 0.726200
v -0.467168 0.093649 0.476200
v -0.960010 0.093649 -0.023800
v -0.960010 0.093649 0.381782
v -0.713589 0.093649 -0.023800
v -0.960010 0.093649 -0.023872
v -0.467168 0.093649 -0.023800
v -0.713589 0.093649 -0.273800
v -1.206431 0.093649 -0.023800
v -1.206431 0.093649 -0.273800
v -1.452852 0.093649 -0.023800
v 1.120642 0.095224 0.228868
v 0.870642 0.095224 0.478868
v 1.120642 0.095224 0.480107
v 0.870642 0.095224 0.728868
v 0.868824 0.095224 0.228868
v 0.620642 0.095224 0.478868
v 1.370642 0.095224 0.478868
v 1.370798 0.095224 0.228868
v 1.620642 0.095224 0.478868
v 1.370642 0.095224 0.728868
v 1.370642 0.095224 -0.021132
v 1.120642 0.095224 -0.021794
v 1.370642 0.095224 -0.271132
v 1.620642 0.095224 -0.021132
v 0.870642 0.095224 -0.021132
v 0.620642 0.095224 -0.021132
v 0.870642 0.095224 -0.271132
v -0.177582 0.093649 0.231120
v 0.072418 0.093649 0.481120
v 0.072418 0.093649 0.231120
v -0.427582 0.093649 0.231120
v -0.177582 0.093649 0.481120
v -0.427582 0.093649 0.481120
v -0.177582 0.093649 0.731120
v 0.322418 0.093649 0.231120
v 0.322418 0.093649 0.481120
v 0.572418 0.093649 0.231120
v 0.322418 0.093649 0.731120
v 0.572418 0.093649 0.481120
v 0.072418 0.093649 -0.010335
v 0.322418 0.093649 -0.268880
v 0.072418 0.093649 -0.304767
v 0.572418 0.093649 -0.018880
v 0.291372 0.093649 0.019571
v 0.492010 0.093649 -0.149294
v -0.427582 0.093649 -0.018880
v -0.177582 0.093649 -0.268880
v -0.146535 0.093649 0.019571
v -0.321200 0.093649 -0.159864
v 0.572418 0.093649 0.731120
v -1.452852 0.093649 -0.273800
v -1.452852 0.093649 0.726200
v -0.467168 0.093649 0.726200
v 0.620642 0.095224 -0.271132
v -0.467168 0.093649 -0.273800
v 0.620642 0.095224 0.728868
v 1.620642 0.095224 0.728868
v 1.620642 0.095224 -0.271132
v -0.427582 0.093649 0.731120
vn 0.0000 1.0000 0.0000
usemtl None
s off
f 1//1 2//1 3//1
f 4//1 5//1 2//1
f 6//1 7//1 8//1
f 9//1 10//1 6//1
f 8//1 11//1 12//1
f 13//1 14//1 11//1
f 7//1 13//1 8//1
f 15//1 16//1 13//1
f 11//1 3//1 12//1
f 17//1 1//1 3//1
f 14//1 17//1 11//1
f 18//1 19//1 17//1
f 20//1 21//1 22//1
f 22//1 21//1 23//1
f 24//1 25//1 21//1
f 25//1 23//1 21//1
f 20//1 26//1 27//1
f 27//1 26//1 28//1
f 22//1 29//1 26//1
f 29//1 28//1 26//1
f 20//1 30//1 31//1
f 31//1 30//1 32//1
f 27//1 33//1 30//1
f 33//1 32//1 30//1
f 20//1 34//1 24//1
f 24//1 34//1 35//1
f 31//1 36//1 34//1
f 36//1 35//1 34//1
f 37//1 38//1 39//1
f 40//1 41//1 37//1
f 42//1 43//1 41//1
f 38//1 44//1 39//1
f 45//1 46//1 44//1
f 47//1 48//1 45//1
f 49//1 50//1 51//1
f 44//1 52//1 53//1
f 53//1 54//1 50//1
f 37//1 55//1 40//1
f 49//1 56//1 57//1
f 57//1 58//1 55//1
f 1//1 4//1 2//1
f 4//1 61//1 5//1
f 6//1 10//1 7//1
f 9//1 62//1 10//1
f 8//1 13//1 11//1
f 13//1 16//1 14//1
f 7//1 15//1 13//1
f 15//1 64//1 16//1
f 11//1 17//1 3//1
f 17//1 19//1 1//1
f 14//1 18//1 17//1
f 18//1 60//1 19//1
f 20//1 24//1 21//1
f 25//1 65//1 23//1
f 20//1 22//1 26//1
f 29//1 66//1 28//1
f 20//1 27//1 30//1
f 33//1 67//1 32//1
f 20//1 31//1 34//1
f 36//1 63//1 35//1
f 37//1 41//1 38//1
f 40//1 42//1 41//1
f 42//1 68//1 43//1
f 38//1 45//1 44//1
f 45//1 48//1 46//1
f 47//1 59//1 48//1
f 49//1 53//1 50//1
f 44//1 46//1 52//1
f 53//1 52//1 54//1
f 37//1 57//1 55//1
f 49//1 51//1 56//1
f 57//1 56//1 58//1
